<?xml version="1.0" encoding="UTF-8"?>
<svg version="1.1" xmlns="http://www.w3.org/2000/svg" width="512" height="512">
<path d="M0 0 C3.5426931 0.02820616 4.63090304 0.2380644 7.75 2.1875 C15.53765837 10.46188702 12.05224403 31.75886905 11.75 42.3125 C10.46602745 73.0182338 3.34638078 104.63100733 -17.25 128.3125 C-17.71664063 128.92222656 -18.18328125 129.53195313 -18.6640625 130.16015625 C-30.6588698 145.55699954 -52.35430043 155.20102974 -71.25 158.3125 C-73.58301986 158.35074623 -75.91711508 158.35824284 -78.25 158.3125 C-78.31703125 159.49199219 -78.3840625 160.67148438 -78.453125 161.88671875 C-79.04356962 166.52374501 -81.10453975 169.5520811 -84 173.125 C-85.01214712 174.43777166 -86.02112231 175.75299339 -87.02734375 177.0703125 C-87.5569873 177.75899414 -88.08663086 178.44767578 -88.63232422 179.15722656 C-91.40408457 182.85011825 -93.9765937 186.67577792 -96.5625 190.5 C-97.65046096 192.09935351 -98.73901266 193.69830532 -99.828125 195.296875 C-100.38177734 196.10962891 -100.93542969 196.92238281 -101.50585938 197.75976562 C-104.58786692 202.27060982 -107.69417148 206.76420607 -110.8125 211.25 C-111.39620361 212.09651123 -111.97990723 212.94302246 -112.58129883 213.81518555 C-119.48896945 223.72548982 -119.48896945 223.72548982 -124.0625 225.25 C-128.07987983 225.32877215 -130.6481736 224.01147472 -134.25 222.3125 C-137.37778581 221.97136439 -137.37778581 221.97136439 -139.4140625 224.33203125 C-140.22617187 225.25371094 -141.03828125 226.17539063 -141.875 227.125 C-142.31303955 227.61838867 -142.7510791 228.11177734 -143.20239258 228.62011719 C-146.98363849 232.91392443 -150.56725906 237.3647498 -154.16015625 241.81640625 C-156.49298936 244.60272467 -158.97766991 247.13135169 -161.5859375 249.65625 C-163.93874688 251.99801333 -166.0747667 254.50707261 -168.2421875 257.01953125 C-170.66072535 259.78155794 -173.13887734 262.48651141 -175.625 265.1875 C-179.02050573 268.87789074 -182.40115183 272.57955455 -185.75 276.3125 C-192.82420803 284.18398013 -199.882723 292.03619105 -207.4296875 299.4609375 C-209.24631248 301.30874918 -210.93955962 303.21984634 -212.625 305.1875 C-216.08553018 309.21688446 -219.82094199 312.92104878 -223.625 316.625 C-225.54394251 318.58963162 -227.30175151 320.5368542 -229.06860352 322.62670898 C-234.66130462 329.03735839 -240.75943087 334.96565967 -246.77734375 340.97265625 C-248.0935346 342.28952213 -249.4095771 343.6065363 -250.72547913 344.9236908 C-253.47316144 347.67284074 -256.2226269 350.42019119 -258.97338867 353.16625977 C-262.48122563 356.66840003 -265.98455307 360.17501151 -269.48654842 363.68299198 C-272.20007406 366.40014855 -274.91599845 369.11489743 -277.6326313 371.82894707 C-278.92461896 373.12027245 -280.21587755 374.41232772 -281.50636101 375.70515633 C-293.67409206 387.89014877 -293.67409206 387.89014877 -299.739151 393.02183533 C-301.86360407 394.83668018 -303.80545042 396.80811813 -305.75 398.8125 C-309.07783017 402.1800824 -312.49511755 405.35063877 -316.0859375 408.43359375 C-318.67938894 410.68530881 -321.21386976 412.99644718 -323.75 415.3125 C-328.20312749 419.36965856 -332.68945535 423.3766875 -337.25 427.3125 C-337.75402344 427.74820312 -338.25804687 428.18390625 -338.77734375 428.6328125 C-367.11349334 453.1079163 -396.71775982 476.6219595 -429.25 495.3125 C-429.86343262 495.66586426 -430.47686523 496.01922852 -431.10888672 496.38330078 C-440.48970398 501.73142786 -450.01958739 505.86657928 -460.25 509.3125 C-461.76787109 509.82490234 -461.76787109 509.82490234 -463.31640625 510.34765625 C-469.50102566 512.23911169 -475.80269758 513.47132887 -482.25 512.3125 C-485.14683868 510.1109026 -486.64297231 508.52655538 -488.25 505.3125 C-489.42150807 476.78882524 -467.63082822 445.77852881 -451.46337891 423.96582031 C-450.21879682 422.26998331 -449.00246887 420.55694639 -447.79296875 418.8359375 C-442.26999355 410.98050708 -436.4885477 403.37474589 -430.49462891 395.87304688 C-429.38996436 394.48799081 -428.29395258 393.09604348 -427.19921875 391.703125 C-422.85302174 386.19614246 -418.32500072 380.86276481 -413.74023438 375.5546875 C-410.69650665 372.02472905 -407.72726523 368.45059852 -404.8125 364.8125 C-400.20965196 359.13649249 -395.23614359 353.84086783 -390.23828125 348.515625 C-388.04539746 346.17636908 -385.90168627 343.80797641 -383.8125 341.375 C-379.43451557 336.31027291 -374.82876883 331.45490356 -370.24633789 326.57592773 C-367.78613939 323.95467525 -365.333534 321.3268367 -362.89038086 318.68969727 C-351.72096935 306.67558861 -340.15713623 295.06485454 -328.54736328 283.47949219 C-325.77625038 280.7141398 -323.00974187 277.94423085 -320.24447632 275.17303276 C-318.07912624 273.0040509 -315.91137803 270.83747834 -313.74291992 268.67160416 C-312.72166946 267.65101241 -311.7011379 266.6297007 -310.68139648 265.60760117 C-305.55396433 260.47088734 -300.40530202 255.42757996 -294.87792969 250.72024536 C-292.54506529 248.70291067 -290.40059537 246.52121957 -288.25 244.3125 C-284.72893677 240.74849698 -281.11813992 237.40945832 -277.3125 234.15625 C-274.86075311 231.96453687 -272.56114427 229.65182896 -270.25 227.3125 C-266.82693209 223.85318175 -263.34041397 220.58332254 -259.64453125 217.421875 C-256.27890568 214.45704986 -253.02014982 211.38188266 -249.75 208.3125 C-245.33863733 204.1754718 -240.91242742 200.0819062 -236.32421875 196.140625 C-234.05340923 194.13923356 -231.84235485 192.0814933 -229.62963867 190.01635742 C-225.13066553 185.81857076 -220.61867456 181.7241929 -215.8125 177.875 C-208.96196168 172.38240862 -202.62921151 166.33782824 -196.25 160.3125 C-196.72695313 159.89742187 -197.20390625 159.48234375 -197.6953125 159.0546875 C-200.20655431 156.24058235 -200.33586129 152.94013959 -200.25 149.3125 C-197.34059796 140.79210832 -184.7105373 134.75665197 -177.625 129.875 C-175.60407269 128.47669832 -173.58324236 127.07825645 -171.5625 125.6796875 C-170.01175781 124.60799316 -170.01175781 124.60799316 -168.4296875 123.51464844 C-165.21862049 121.29076757 -162.01449647 119.05723035 -158.8125 116.8203125 C-157.77561035 116.09642334 -156.7387207 115.37253418 -155.67041016 114.62670898 C-153.67979918 113.23660058 -151.68986124 111.84552778 -149.70068359 110.45336914 C-148.34450928 109.50772095 -148.34450928 109.50772095 -146.9609375 108.54296875 C-146.16993652 107.99020264 -145.37893555 107.43743652 -144.56396484 106.86791992 C-142.25 105.3125 -142.25 105.3125 -139.55712891 103.87597656 C-136.87379952 102.05755949 -136.42441215 101.14980554 -135.625 98.06640625 C-135.28202881 96.81935913 -135.28202881 96.81935913 -134.93212891 95.54711914 C-134.70702637 94.66531982 -134.48192383 93.78352051 -134.25 92.875 C-133.74135286 91.05085811 -133.2283427 89.22792709 -132.7109375 87.40625 C-132.46311523 86.52582031 -132.21529297 85.64539063 -131.95996094 84.73828125 C-127.11919789 68.19845263 -117.28404425 52.31533803 -102.87890625 42.56640625 C-95.26284675 38.93378352 -88.03996044 37.94608795 -79.6875 37.875 C-63.02148267 37.37077783 -49.71734046 33.54794102 -35.25 25.3125 C-34.27546875 24.76722656 -33.3009375 24.22195312 -32.296875 23.66015625 C-22.27865418 17.66972889 -13.39249021 9.63264454 -5.25 1.3125 C-3.69014791 -0.24735209 -2.16093902 0.06797656 0 0 Z M-14.25 37.25 C-34.13116943 51.23204926 -54.75574039 57.22555769 -78.88085938 58.34765625 C-87.55769825 58.88395066 -93.14890473 60.45572181 -99.1875 67.0625 C-108.90426415 78.6211266 -113.96180066 93.76882868 -117.25 108.3125 C-117.5277124 109.44236328 -117.8054248 110.57222656 -118.09155273 111.73632812 C-118.57987357 115.36264211 -118.57987357 115.36264211 -116.52197266 118.21850586 C-115.6613623 119.14542236 -114.80075195 120.07233887 -113.9140625 121.02734375 C-113.21535538 121.78008575 -113.21535538 121.78008575 -112.50253296 122.54803467 C-110.98879644 124.14669185 -109.44027496 125.70184973 -107.875 127.25 C-107.35035156 127.77574615 -106.82570313 128.30149231 -106.28515625 128.84317017 C-98.52374258 136.74271754 -98.52374258 136.74271754 -88.31176758 140.11938477 C-84.82024152 139.91721114 -81.61674299 139.22437924 -78.25 138.3125 C-76.36087891 137.96638672 -76.36087891 137.96638672 -74.43359375 137.61328125 C-53.73299479 133.18823142 -36.6248615 120.89183298 -25.125 103.25 C-13.04300618 82.8527516 -8.52712292 57.76584518 -9.25 34.3125 C-11.15324736 34.3125 -12.79406262 36.16542503 -14.25 37.25 Z M-141.2578125 129.98828125 C-142.07282227 130.56433105 -142.88783203 131.14038086 -143.72753906 131.73388672 C-144.60120117 132.3579541 -145.47486328 132.98202148 -146.375 133.625 C-148.18447801 134.90553853 -149.99438011 136.18547799 -151.8046875 137.46484375 C-152.71444336 138.10921387 -153.62419922 138.75358398 -154.56152344 139.41748047 C-158.51871944 142.20677899 -162.50613728 144.95106638 -166.5 147.6875 C-167.18465332 148.15712158 -167.86930664 148.62674316 -168.57470703 149.1105957 C-170.13259836 150.1786847 -171.69120658 151.24572797 -173.25 152.3125 C-168.57012272 157.92807272 -163.58568886 163.13754225 -158.421875 168.30859375 C-157.59165833 169.14213882 -156.76144165 169.9756839 -155.90606689 170.83448792 C-154.16264779 172.58294325 -152.41789475 174.33006941 -150.671875 176.07592773 C-147.9893044 178.76070439 -145.31485238 181.45340026 -142.640625 184.14648438 C-140.94319742 185.84684255 -139.24529757 187.54672943 -137.546875 189.24609375 C-136.74481628 190.05533798 -135.94275757 190.86458221 -135.11639404 191.698349 C-134.004487 192.8056411 -134.004487 192.8056411 -132.87011719 193.93530273 C-132.21758972 194.58925522 -131.56506226 195.2432077 -130.89276123 195.91697693 C-129.35520616 197.52830882 -129.35520616 197.52830882 -127.25 197.3125 C-125.58774023 195.32779848 -125.58774023 195.32779848 -123.87109375 192.73828125 C-122.865625 191.27950562 -122.865625 191.27950562 -121.83984375 189.79125977 C-121.12957031 188.74639404 -120.41929687 187.70152832 -119.6875 186.625 C-118.96820313 185.57820068 -118.24890625 184.53140137 -117.5078125 183.45288086 C-116.07398897 181.36560195 -114.64279108 179.27651672 -113.21435547 177.18554688 C-110.74269445 173.57051992 -108.24819528 169.97170741 -105.75 166.375 C-104.58304237 164.68770119 -103.41623367 163.00029928 -102.25 161.3125 C-106.20538736 156.58241876 -110.31700223 152.08628695 -114.671875 147.72265625 C-115.25793518 147.13326767 -115.84399536 146.54387909 -116.44781494 145.93663025 C-117.67337924 144.70604716 -118.90026072 143.47677456 -120.12841797 142.2487793 C-122.01428826 140.36069496 -123.89198401 138.46471628 -125.76953125 136.56835938 C-126.96565718 135.36930401 -128.16225462 134.17071877 -129.359375 132.97265625 C-129.92082214 132.40402359 -130.48226929 131.83539093 -131.06072998 131.24952698 C-135.37465964 126.96107 -136.36130567 126.50265996 -141.2578125 129.98828125 Z M-187.625 181.25 C-192.87334741 186.1874884 -198.23564109 190.82256041 -203.859375 195.328125 C-206.61877032 197.61860347 -209.10590183 200.07850801 -211.59765625 202.65234375 C-213.91368258 204.97932056 -216.39697912 207.08800924 -218.8828125 209.23046875 C-222.42760097 212.34824474 -225.87758636 215.56705417 -229.33056641 218.78588867 C-232.23095613 221.48090527 -235.16641161 224.12307976 -238.15625 226.71875 C-242.28568451 230.31573594 -246.2762504 234.0450996 -250.25 237.8125 C-251.73679227 239.2176457 -253.22377634 240.62258848 -254.7109375 242.02734375 C-255.46084961 242.73616699 -256.21076172 243.44499023 -256.98339844 244.17529297 C-259.20483044 246.26990905 -261.43286713 248.35719673 -263.6640625 250.44140625 C-264.37175781 251.10269531 -265.07945312 251.76398438 -265.80859375 252.4453125 C-267.14111577 253.68967144 -268.47439292 254.93322249 -269.80859375 256.17578125 C-272.83247797 259.00231723 -275.80658497 261.85909159 -278.7109375 264.80859375 C-280.93315085 267.05076107 -283.20370461 269.15306667 -285.61743164 271.18603516 C-292.01425169 276.75551765 -297.92138011 282.84018442 -303.91015625 288.83984375 C-305.22702213 290.1560346 -306.5440363 291.4720771 -307.8611908 292.78797913 C-310.61034074 295.53566144 -313.35769119 298.2851269 -316.10375977 301.03588867 C-319.60590003 304.54372563 -323.11251151 308.04705307 -326.62049198 311.54904842 C-329.33764855 314.26257406 -332.05239743 316.97849845 -334.76644707 319.6951313 C-336.05777245 320.98711896 -337.34982772 322.27837755 -338.64265633 323.56886101 C-347.51095353 332.38809432 -347.51095353 332.38809432 -355.8525238 341.70094299 C-357.40666944 343.4931698 -359.05669106 345.15186849 -360.75 346.8125 C-363.72057406 349.73717115 -366.45729119 352.79869561 -369.17578125 355.95703125 C-371.26450391 358.32897054 -373.40563403 360.64172583 -375.5625 362.95141602 C-380.62823732 368.37729559 -385.45440954 373.90844053 -390.10546875 379.69921875 C-392.24874956 382.31097623 -394.4738033 384.81615302 -396.75 387.3125 C-422.51842634 415.69768564 -450.90389227 450.53409488 -463.25 487.3125 C-443.11525169 483.84030575 -423.23523988 468.32224403 -407.25 456.3125 C-405.75129482 455.21567647 -404.25115864 454.12080696 -402.75 453.02734375 C-394.04781264 446.67916773 -385.46672214 440.28314265 -377.25 433.3125 C-376.19539413 432.4204764 -375.14070203 431.52855474 -374.0859375 430.63671875 C-372.41716222 429.22486707 -370.74935386 427.81195028 -369.08447266 426.39550781 C-365.68000065 423.50276641 -362.23237911 420.67406344 -358.75 417.875 C-353.36426586 413.49565122 -348.30183201 408.81205162 -343.23046875 404.078125 C-340.98401311 401.98339076 -338.70526572 399.93920331 -336.375 397.9375 C-330.70010472 393.02401625 -325.27025357 387.83652227 -319.80049133 382.69749451 C-317.88727821 380.90842636 -315.96854608 379.12629468 -314.04469299 377.34873962 C-305.07100431 369.04150263 -296.3258446 360.53704563 -287.6875 351.8828125 C-286.35821779 350.55420685 -285.02878742 349.2257494 -283.69921875 347.89743042 C-280.94483023 345.14449876 -278.19221387 342.3898114 -275.44091797 339.63378906 C-271.93339348 336.1205288 -268.42134284 332.61183262 -264.90797424 329.1044178 C-262.17453509 326.37460551 -259.44349827 323.64239978 -256.71316528 320.90948105 C-255.41904835 319.61470277 -254.12420412 318.32065096 -252.82858276 317.02737808 C-243.91910253 308.15496132 -243.91910253 308.15496132 -235.52026367 298.802948 C-233.8664675 296.86248694 -232.08337428 295.08265448 -230.25 293.3125 C-227.62959391 290.73240785 -225.14676588 288.10146393 -222.75 285.3125 C-219.80421205 281.88467403 -216.68824653 278.70115183 -213.4375 275.5625 C-211.53973453 273.61051266 -209.75268548 271.61733681 -207.96875 269.5625 C-203.73158351 264.68388613 -199.29849786 260.002873 -194.85546875 255.3125 C-191.12091056 251.35371368 -187.48770809 247.32832602 -183.91992188 243.21875 C-181.41925127 240.36418332 -178.83712753 237.58852211 -176.25 234.8125 C-171.83390441 230.04722792 -167.48067083 225.24400923 -163.25 220.3125 C-162.52901123 219.47307861 -162.52901123 219.47307861 -161.79345703 218.61669922 C-158.27448938 214.51912702 -154.76079552 210.41707539 -151.25 206.3125 C-152.90367115 202.03363402 -156.11979574 199.1724365 -159.31640625 196.015625 C-160.20754372 195.12517487 -160.20754372 195.12517487 -161.11668396 194.21673584 C-162.36928717 192.96714684 -163.62431307 191.71998226 -164.8815918 190.47509766 C-166.81425072 188.56076588 -168.73871713 186.63848142 -170.66210938 184.71484375 C-171.87973606 183.5021298 -173.09781918 182.28987392 -174.31640625 181.078125 C-175.18514122 180.21105927 -175.18514122 180.21105927 -176.07142639 179.32647705 C-181.81051798 173.65594827 -182.30180274 176.19891283 -187.625 181.25 Z " fill="#ffffff" transform="translate(494.25,-0.3125)"/>
</svg>
